<svg width="60" height="60" viewBox="0 0 60 60" fill="none" xmlns="http://www.w3.org/2000/svg">
<path d="M59.0489 8.37857L54.9226 11.5286C49.2964 4.50714 40.5463 0 30.7207 0C13.7544 0 0.0219748 13.3929 2.62178e-05 29.9643C-0.0219223 46.55 13.7398 60 30.7207 60C43.9849 60 55.2884 51.7857 59.5903 40.2786C59.7 39.9786 59.5391 39.6429 59.2318 39.5429L55.0835 38.15C54.9389 38.1016 54.7806 38.1104 54.6425 38.1744C54.5044 38.2385 54.3975 38.3528 54.3446 38.4929C54.2129 38.85 54.0666 39.2071 53.9129 39.5571C52.6472 42.4857 50.8328 45.1143 48.5209 47.3714C46.2277 49.6146 43.5125 51.4045 40.5243 52.6429C37.4296 53.9214 34.13 54.5714 30.7353 54.5714C27.3333 54.5714 24.041 53.9214 20.9462 52.6429C17.9552 51.4097 15.239 49.6192 12.9497 47.3714C10.6502 45.1328 8.81882 42.4787 7.55764 39.5571C6.24804 36.5286 5.58227 33.3143 5.58227 29.9929C5.58227 26.6714 6.24804 23.4571 7.55764 20.4286C8.82334 17.5 10.6377 14.8714 12.9497 12.6143C15.2616 10.3571 17.9539 8.58572 20.9462 7.34286C24.041 6.06429 27.3406 5.41429 30.7353 5.41429C34.1373 5.41429 37.4296 6.06429 40.5243 7.34286C43.5154 8.57604 46.2315 10.3666 48.5209 12.6143C49.2452 13.3214 49.9256 14.0714 50.5548 14.8571L46.1505 18.2143C46.0633 18.2801 45.997 18.3686 45.9591 18.4696C45.9211 18.5706 45.9132 18.68 45.9361 18.7852C45.959 18.8904 46.0119 18.9871 46.0887 19.0643C46.1654 19.1415 46.2629 19.196 46.37 19.2214L59.2172 22.2929C59.583 22.3786 59.9415 22.1071 59.9415 21.7429L60 8.82143C59.9927 8.35 59.4293 8.08572 59.0489 8.37857Z" fill="#E8590C"/>
</svg>
