
<svg version="1.0" xmlns="http://www.w3.org/2000/svg"
 width="64.000000pt" height="64.000000pt" viewBox="0 0 64.000000 64.000000"
 preserveAspectRatio="xMidYMid meet">

<g transform="translate(0.000000,64.000000) scale(0.100000,-0.100000)"
fill="#E8590C" stroke="none">
<path d="M25 615 c-23 -22 -25 -31 -25 -122 0 -127 15 -213 46 -275 37 -74
112 -143 197 -184 72 -34 74 -34 115 -20 65 23 150 84 192 138 63 79 81 142
88 300 l5 136 -26 26 -26 26 -271 0 -271 0 -24 -25z m553 -168 c-3 -127 -5
-137 -37 -201 -36 -73 -100 -133 -180 -168 l-44 -19 -51 25 c-80 39 -131 89
-168 163 -31 63 -33 73 -36 200 l-4 133 262 0 262 0 -4 -133z"/>
<path d="M365 380 c-49 -44 -91 -80 -95 -80 -3 0 -21 16 -40 35 -36 37 -67 45
-77 19 -7 -18 92 -124 117 -124 25 0 215 180 215 204 0 41 -33 26 -120 -54z"/>
</g>
</svg>
