<svg width="20" height="20" viewBox="0 0 31 30" fill="none" xmlns="http://www.w3.org/2000/svg">
<path d="M22.832 10.6058H21.5635V8.18913C21.5635 4.85413 18.7222 2.14746 15.2213 2.14746C11.7204 2.14746 8.87907 4.85413 8.87907 8.18913V10.6058H7.61062C6.21533 10.6058 5.07373 11.6933 5.07373 13.0225V25.1058C5.07373 26.435 6.21533 27.5225 7.61062 27.5225H22.832C24.2273 27.5225 25.3689 26.435 25.3689 25.1058V13.0225C25.3689 11.6933 24.2273 10.6058 22.832 10.6058ZM15.2213 21.4808C13.826 21.4808 12.6844 20.3933 12.6844 19.0641C12.6844 17.735 13.826 16.6475 15.2213 16.6475C16.6166 16.6475 17.7582 17.735 17.7582 19.0641C17.7582 20.3933 16.6166 21.4808 15.2213 21.4808ZM19.1535 10.6058H11.2891V8.18913C11.2891 6.12288 13.0523 4.44329 15.2213 4.44329C17.3903 4.44329 19.1535 6.12288 19.1535 8.18913V10.6058Z" fill="black"/>
</svg>